<svg xmlns="http://www.w3.org/2000/svg">
  <symbol id="close-button" viewBox="0 0 15 15">
    <path d="M14.5 1.78 13.2.5 7.49 6.2 1.79.5.48 1.8l5.7 5.7-5.7 5.7 1.3 1.3 5.7-5.7 5.7 5.7 1.3-1.3-5.7-5.7 5.7-5.7Z"/>
  </symbol>

  <symbol id="calendar" viewBox="0 0 16 15">
    <path d="M5.75 10c.3 0 .5-.2.5-.5s-.2-.5-.5-.5-.5.2-.5.5.2.5.5.5Z" fill="#000"/><path d="M15 2h-2V0h-1v2H4V0H3v2H1c-.6 0-1 .4-1 1v11c0 .5.4 1 1 1h14c.5 0 1-.5 1-1V3c0-.6-.5-1-1-1Zm0 12H1V7h14v7ZM1 6V3h2v2h1V3h8v2h1V3h2v3H1Z" fill="#000"/><path d="M8 10c.3 0 .5-.2.5-.5S8.3 9 8 9s-.5.2-.5.5.2.5.5.5ZM10.25 10c.3 0 .5-.2.5-.5s-.2-.5-.5-.5-.5.2-.5.5.2.5.5.5ZM5.75 11c-.3 0-.5.2-.5.5s.2.5.5.5.5-.2.5-.5-.2-.5-.5-.5ZM3.5 10c.3 0 .5-.2.5-.5S3.8 9 3.5 9s-.5.2-.5.5.2.5.5.5ZM3.5 11c-.3 0-.5.2-.5.5s.2.5.5.5.5-.2.5-.5-.2-.5-.5-.5ZM8 11c-.3 0-.5.2-.5.5s.2.5.5.5.5-.2.5-.5-.2-.5-.5-.5ZM10.25 11c-.3 0-.5.2-.5.5s.2.5.5.5.5-.2.5-.5-.2-.5-.5-.5ZM12.5 10c.3 0 .5-.2.5-.5s-.2-.5-.5-.5-.5.2-.5.5.2.5.5.5ZM12.5 11c-.3 0-.5.2-.5.5s.2.5.5.5.5-.2.5-.5-.2-.5-.5-.5Z" fill="#000"/>
  </symbol>

  <symbol id="less" viewBox="0 0 14 2">
    <path d="M0 0v2h14V0H0Z"/>
  </symbol>

  <symbol id="more" viewBox="0 0 14 14">
    <path d="M14 6H8V0H6v6H0v2h6v6h2V8h6V6Z"/>
  </symbol>
</svg>
